####
#
#	OBJ File Generated by LightWave3D
#	LightWave3D OBJ Export v2.3
#
####
o arcade4.obj
mtllib arcade4.mtl
g default
v 0.664 -1.6975 -0.73475
v -0.664 -1.6975 -0.73475
v 0.664 0.0181635 -0.75011
v -0.664 0.0181635 -0.75011
v 0.664 -0.8375 -0.74475
v -0.664 -0.8375 -0.74475
v 0.664 0.176885 -0.27359
v -0.664 0.176885 -0.27359
v -0.664 1.24751 0.371419
v 0.664 1.24751 0.371419
v -0.664 1.42169 -0.247234
v 0.664 1.42169 -0.247234
v -0.664 1.17857 0.69525
v -0.664 1.26107 0.69525
v 0.664 1.17857 0.69525
v 0.664 1.26107 0.69525
v -0.664 0.2425 0.69525
v 0.664 0.2425 0.69525
v -0.664 -0.0275 0.69525
v 0.664 -0.0275 0.69525
v -0.664 -1.6975 0.69525
v -0.664 -0.9275 0.69525
v 0.664 -1.6975 0.69525
v 0.664 -0.9275 0.69525
v 0.814 0.2425 0.69525
v 0.814 -0.0275 0.69525
v 0.814 -0.9275 0.69525
v 0.814 -1.6975 0.69525
v 0.814 1.26107 0.69525
v 0.814 1.17857 0.69525
v -0.814 0.2425 0.69525
v -0.814 -0.0275 0.69525
v -0.814 -0.9275 0.69525
v -0.814 -1.6975 0.69525
v -0.814 1.26107 0.69525
v -0.814 1.17857 0.69525
v 0.814 0.947621 -0.278756
v 0.814 1.93309 -0.199305
v 0.814 1.4269 -0.245165
v 0.664 0.947621 -0.278756
v 0.664 1.4269 -0.245165
v -0.814 0.947621 -0.278756
v -0.814 1.93309 -0.199305
v -0.814 1.4269 -0.245165
v -0.664 0.947621 -0.278756
v -0.664 1.4269 -0.245165
v 0.814 0.207352 -0.319263
v 0.814 0.0625 -0.79525
v 0.664 0.207352 -0.319263
v 0.664 0.0625 -0.79525
v -0.814 0.207352 -0.319263
v -0.814 0.0625 -0.79525
v -0.664 0.207352 -0.319263
v -0.664 0.0625 -0.79525
v 0.814 -1.6975 -0.77525
v 0.814 -0.8375 -0.787466
v 0.664 -1.6975 -0.77525
v 0.664 -0.8375 -0.787466
v -0.814 -1.6975 -0.77525
v -0.814 -0.8375 -0.787466
v -0.664 -1.6975 -0.77525
v -0.664 -0.8375 -0.787466
v 0.814 1.62153 0.695377
v 0.664 1.62153 0.695377
v -0.814 1.62153 0.695377
v -0.664 1.62153 0.695377
v 0.664 1.93103 -0.197167
v -0.664 1.93309 -0.199305
vt 0.01725 0.311284
vt 0.01725 0.392477
vt 0.01725 0.477447
vt 0.01725 0.522322
vt 0.01725 0.6262
vt 0.01725 0.637461
vt 0.01725 0.67245
vt 0.0173839 0.691016
vt 0.0173839 0.763322
vt 0.0338693 0.311284
vt 0.0338693 0.392477
vt 0.0338693 0.477447
vt 0.0338693 0.522322
vt 0.0338693 0.6262
vt 0.0338693 0.637461
vt 0.0338693 0.67245
vt 0.0340392 0.691016
vt 0.0340392 0.763322
vt 0.0453054 0.03
vt 0.0453054 0.0871902
vt 0.0453054 0.154036
vt 0.0453054 0.17409
vt 0.0453054 0.231614
vt 0.0453054 0.237742
vt 0.0453054 0.265817
vt 0.045343 0.03
vt 0.045343 0.0872818
vt 0.045343 0.154235
vt 0.045343 0.17432
vt 0.045343 0.231957
vt 0.045343 0.238094
vt 0.045343 0.266195
vt 0.04637 0.692993
vt 0.04637 0.763822
vt 0.0465094 0.31106
vt 0.0465094 0.394091
vt 0.0465094 0.476704
vt 0.0465094 0.518028
vt 0.0465094 0.629119
vt 0.0465094 0.640143
vt 0.0465094 0.67194
vt 0.121255 0.271946
vt 0.121287 0.2723
vt 0.122987 0.246036
vt 0.123022 0.247528
vt 0.123314 0.216974
vt 0.123352 0.218345
vt 0.12558 0.171628
vt 0.125622 0.171805
vt 0.161159 0.03
vt 0.161382 0.03
vt 0.162121 0.0938747
vt 0.162346 0.0939771
vt 0.162735 0.16072
vt 0.16296 0.16093
vt 0.16948 0.31106
vt 0.16948 0.394091
vt 0.16948 0.476704
vt 0.16948 0.518028
vt 0.16948 0.629119
vt 0.16948 0.640143
vt 0.16948 0.67194
vt 0.16987 0.692993
vt 0.16987 0.763822
vt 0.181006 0.311284
vt 0.181006 0.392477
vt 0.181006 0.477447
vt 0.181006 0.522322
vt 0.181006 0.6262
vt 0.181006 0.637461
vt 0.181006 0.67245
vt 0.181494 0.691016
vt 0.181494 0.763322
vt 0.197625 0.311284
vt 0.197625 0.392477
vt 0.197625 0.477447
vt 0.197625 0.522322
vt 0.197625 0.6262
vt 0.197625 0.637461
vt 0.197625 0.67245
vt 0.198149 0.691016
vt 0.198149 0.763322
vn 0 0 1
vn 0 0 1
vn 0 0 1
vn 0 0 1
vn 0 0 1
vn 0 0 1
vn 0 0 1
vn 0 0 1
vn 0 0 1
vn 0 0 1
vn 0 0 1
vn 0 0 1
vn 0 -1 -0
vn 0 -1 -0
vn 0 -1 -0
vn 0 -1 -0
vn 0 -0.000353533 1
vn 0 -0.000353533 1
vn 0 -0.000353533 1
vn 0 -0.000353533 1
vn 0 0 1
vn 0 0 1
vn 0 0 1
vn 0 0 1
vn 0 0 1
vn 0 0 1
vn 0 0 1
vn 0 0 1
vn -1 0 0
vn -1 0 0
vn -1 0 0
vn -1 0 0
vn -1 0 -0
vn -1 0 -0
vn -1 0 -0
vn -1 0 -0
vn -1 0 -0
vn -1 0 -0
vn -1 0 -0
vn -1 0 -0
vn -1 0 0
vn -1 0 0
vn -1 0 0
vn -1 0 0
vn -1 0 -0
vn -1 0 -0
vn -1 0 -0
vn -1 0 -0
vn -1 0 -0
vn -1 0 -0
vn -1 0 -0
vn -1 0 -0
vn 0 0 1
vn 0 0 1
vn 0 0 1
vn 0 0 1
vn 0 0 1
vn 0 0 1
vn 0 0 1
vn 0 0 1
vn 0 0 1
vn 0 0 1
vn 0 0 1
vn 0 0 1
vn 0 -1 -0
vn 0 -1 -0
vn 0 -1 -0
vn 0 -1 -0
vn -0 -0.000353533 1
vn -0 -0.000353533 1
vn -0 -0.000353533 1
vn -0 -0.000353533 1
vn 0 0 1
vn 0 0 1
vn 0 0 1
vn 0 0 1
vn 0 0 1
vn 0 0 1
vn 0 0 1
vn 0 0 1
vn 1 0 -0
vn 1 0 -0
vn 1 0 -0
vn 1 0 -0
vn 1 0 0
vn 1 0 0
vn 1 0 0
vn 1 0 0
vn 1 0 -0
vn 1 0 -0
vn 1 0 -0
vn 1 0 -0
vn 1 0 -0
vn 1 0 -0
vn 1 0 -0
vn 1 0 -0
vn 1 0 -0
vn 1 0 -0
vn 1 0 -0
vn 1 0 -0
vn 1 0 -0
vn 1 0 -0
vn 1 0 -0
vn 1 0 -0
vn 0 0 1
vn 0 0 1
vn 0 0 1
vn 0 0 1
vn 0 0 1
vn 0 0 1
vn 0 0 1
vn 0 0 1
vn 0 0 1
vn 0 0 1
vn 0 0 1
vn 0 0 1
vn 0 -0.000353533 1
vn 0 -0.000353533 1
vn 0 -0.000353533 1
vn 0 -0.000353533 1
vn 0 0 1
vn 0 0 1
vn 0 0 1
vn 0 0 1
vn 0 0 1
vn 0 0 1
vn 0 0 1
vn 0 0 1
vn 0 -0.00626431 -0.99998
vn 0 -0.00626431 -0.99998
vn 0 -0.00626431 -0.99998
vn 0 -0.00626431 -0.99998
vn 0 -0.0116271 -0.999932
vn 0 -0.0116271 -0.999932
vn 0 -0.0116271 -0.999932
vn 0 -0.0116271 -0.999932
vn 0 0.948754 -0.316016
vn 0 0.948754 -0.316016
vn 0 0.948754 -0.316016
vn 0 0.948754 -0.316016
vn 0 0.516045 -0.856561
vn 0 0.516045 -0.856561
vn 0 0.516045 -0.856561
vn 0 0.516045 -0.856561
vn 0 -0.962574 -0.271019
vn 0 -0.962574 -0.271019
vn 0 -0.962574 -0.271019
vn 0 -0.962574 -0.271019
vn 0.00174758 0.0933116 -0.995635
vn 0.00174758 0.0933116 -0.995635
vn 0.00174758 0.0933116 -0.995635
vn 0.00174758 0.0933116 -0.995635
vn 1 0 -0
vn 1 0 -0
vn 1 0 -0
vn 1 0 -0
vn 1 0 0
vn 1 0 0
vn 1 0 0
vn 1 0 0
vn 1 0 -0
vn 1 0 -0
vn 1 0 -0
vn 1 0 -0
vn 1 0 -0
vn 1 0 -0
vn 1 0 -0
vn 1 0 -0
vn 1 0 -0
vn 1 0 -0
vn 1 0 -0
vn 1 0 -0
vn 1 0 -0
vn 1 0 -0
vn 1 0 -0
vn 1 0 -0
vn -1 0 0
vn -1 0 0
vn -1 0 0
vn -1 0 0
vn -1 0 -0
vn -1 0 -0
vn -1 0 -0
vn -1 0 -0
vn -1 0 -0
vn -1 0 -0
vn -1 0 -0
vn -1 0 -0
vn -1 0 0
vn -1 0 0
vn -1 0 0
vn -1 0 0
vn -1 0 -0
vn -1 0 -0
vn -1 0 -0
vn -1 0 -0
vn -1 0 -0
vn -1 0 -0
vn -1 0 -0
vn -1 0 -0
vn -0 0.956681 -0.291137
vn -0 0.956681 -0.291137
vn -0 0.956681 -0.291137
vn -0 0.956681 -0.291137
vn 0 -0.00864897 -0.999963
vn 0 -0.00864897 -0.999963
vn 0 -0.00864897 -0.999963
vn 0 -0.00864897 -0.999963
vn 0 -0.0142028 -0.999899
vn 0 -0.0142028 -0.999899
vn 0 -0.0142028 -0.999899
vn 0 -0.0142028 -0.999899
vn -0 0.0947799 -0.995498
vn -0 0.0947799 -0.995498
vn -0 0.0947799 -0.995498
vn -0 0.0947799 -0.995498
vn -0 0.0699146 -0.997553
vn -0 0.0699146 -0.997553
vn -0 0.0699146 -0.997553
vn -0 0.0699146 -0.997553
vn -0 0.0546387 -0.998506
vn -0 0.0546387 -0.998506
vn -0 0.0546387 -0.998506
vn -0 0.0546387 -0.998506
vn 0 0.956681 -0.291137
vn 0 0.956681 -0.291137
vn 0 0.956681 -0.291137
vn 0 0.956681 -0.291137
vn 0 -0.00864897 -0.999963
vn 0 -0.00864897 -0.999963
vn 0 -0.00864897 -0.999963
vn 0 -0.00864897 -0.999963
vn 0 -0.0142028 -0.999899
vn 0 -0.0142028 -0.999899
vn 0 -0.0142028 -0.999899
vn 0 -0.0142028 -0.999899
vn 0 0.090228 -0.995921
vn 0 0.090228 -0.995921
vn 0 0.090228 -0.995921
vn 0 0.090228 -0.995921
vn 0 0.0699146 -0.997553
vn 0 0.0699146 -0.997553
vn 0 0.0699146 -0.997553
vn 0 0.0699146 -0.997553
vn 0 0.0546387 -0.998506
vn 0 0.0546387 -0.998506
vn 0 0.0546387 -0.998506
vn 0 0.0546387 -0.998506
vn 0 0.944808 0.327624
vn 0 0.944808 0.327624
vn 0 0.944808 0.327624
vn 0 0.944808 0.327624
vn 0 0.944377 0.328864
vn 0 0.944377 0.328864
vn 0 0.944377 0.328864
vn 0 0.944377 0.328864
vn 0.000936275 0.944808 0.327624
vn 0.000936275 0.944808 0.327624
vn 0.000936275 0.944808 0.327624
vn 0.000936275 0.944808 0.327624
g Default
usemtl Default
s off
f 26/28/1 25/29/2 18/22/3 20/21/4
f 27/27/5 26/28/6 20/21/7 24/20/8
f 28/26/9 27/27/10 24/20/11 23/19/12
f 57/50/13 55/51/14 28/26/15 23/19/16
f 29/31/17 63/32/18 64/25/19 16/24/20
f 30/30/21 29/31/22 16/24/23 15/23/24
f 25/29/25 30/30/26 15/23/27 18/22/28
f 20/21/29 18/22/30 49/48/31 50/54/32
f 50/54/33 58/52/34 24/20/35 20/21/36
f 57/50/37 23/19/38 24/20/39 58/52/40
f 16/24/41 64/25/42 67/42/43 41/44/44
f 15/23/45 16/24/46 41/44/47 40/46/48
f 18/22/49 15/23/50 40/46/51 49/48/52
f 17/22/53 31/29/54 32/28/55 19/21/56
f 19/21/57 32/28/58 33/27/59 22/20/60
f 22/20/61 33/27/62 34/26/63 21/19/64
f 34/26/65 59/51/66 61/50/67 21/19/68
f 66/25/69 65/32/70 35/31/71 14/24/72
f 14/24/73 35/31/74 36/30/75 13/23/76
f 13/23/77 36/30/78 31/29/79 17/22/80
f 53/48/81 17/22/82 19/21/83 54/54/84
f 22/20/85 62/52/86 54/54/87 19/21/88
f 22/20/89 21/19/90 61/50/91 62/52/92
f 68/42/93 66/25/94 14/24/95 46/44/96
f 46/44/97 14/24/98 13/23/99 45/46/100
f 45/46/101 13/23/102 17/22/103 53/48/104
f 18/22/105 17/22/106 19/21/107 20/21/108
f 22/20/109 24/20/110 20/21/111 19/21/112
f 24/20/113 22/20/114 21/19/115 23/19/116
f 14/24/117 16/24/118 64/25/119 66/25/120
f 13/23/121 15/23/122 16/24/123 14/24/124
f 15/23/125 13/23/126 17/22/127 18/22/128
f 3/37/129 5/36/130 6/57/131 4/58/132
f 2/56/133 6/57/134 5/36/135 1/35/136
f 4/58/137 8/59/138 7/38/139 3/37/140
f 8/59/141 9/60/142 10/39/143 7/38/144
f 9/60/145 11/61/146 12/40/147 10/39/148
f 67/41/149 12/40/150 11/61/151 68/62/152
f 47/49/153 25/29/154 26/28/155 48/55/156
f 27/27/157 56/53/158 48/55/159 26/28/160
f 27/27/161 28/26/162 55/51/163 56/53/164
f 38/43/165 63/32/166 29/31/167 39/45/168
f 39/45/169 29/31/170 30/30/171 37/47/172
f 37/47/173 30/30/174 25/29/175 47/49/176
f 32/28/177 31/29/178 51/49/179 52/55/180
f 52/55/181 60/53/182 33/27/183 32/28/184
f 59/51/185 34/26/186 33/27/187 60/53/188
f 35/31/189 65/32/190 43/43/191 44/45/192
f 36/30/193 35/31/194 44/45/195 42/47/196
f 31/29/197 36/30/198 42/47/199 51/49/200
f 49/68/201 47/77/202 48/76/203 50/67/204
f 50/67/205 48/76/206 56/75/207 58/66/208
f 58/66/209 56/75/210 55/74/211 57/65/212
f 67/71/213 38/80/214 39/79/215 41/70/216
f 41/70/217 39/79/218 37/78/219 40/69/220
f 40/69/221 37/78/222 47/77/223 49/68/224
f 52/3/225 51/4/226 53/13/227 54/12/228
f 60/2/229 52/3/230 54/12/231 62/11/232
f 59/1/233 60/2/234 62/11/235 61/10/236
f 44/6/237 43/7/238 68/16/239 46/15/240
f 42/5/241 44/6/242 46/15/243 45/14/244
f 51/4/245 42/5/246 45/14/247 53/13/248
f 63/81/249 38/82/250 67/73/251 64/72/252
f 68/18/253 43/9/254 65/8/255 66/17/256
f 68/34/257 66/33/258 64/63/259 67/64/260
