####
#
#	OBJ File Generated by LightWave3D
#	LightWave3D OBJ Export v2.3
#
####
o arcade3.obj
mtllib arcade3.mtl
g default
v -0.814 0.2425 0.69525
v -0.814 -0.0275 0.69525
v -0.814 -0.9275 0.69525
v -0.814 -1.6975 0.69525
v -0.814 1.26107 0.69525
v -0.814 1.17857 0.69525
v 0.814 0.2425 0.69525
v 0.814 -0.0275 0.69525
v 0.814 -0.9275 0.69525
v 0.814 -1.6975 0.69525
v 0.814 1.26107 0.69525
v 0.814 1.17857 0.69525
v -0.664 -1.6975 -0.73475
v 0.664 -1.6975 -0.73475
v -0.664256 0.0165551 -0.75274
v 0.668399 0.0165551 -0.75274
v -0.664 -0.8375 -0.74475
v 0.664 -0.8375 -0.74475
v -0.664256 0.175833 -0.274549
v 0.668399 0.175833 -0.274549
v 0.664 1.32751 -0.0235811
v -0.664 1.32751 -0.0235811
v 0.664 1.44169 -0.182234
v -0.664 1.44169 -0.182234
v 0.664 1.17857 0.69525
v 0.664 1.26107 0.69525
v -0.664 1.17857 0.69525
v -0.664 1.26107 0.69525
v 0.664 0.2425 0.69525
v -0.664 0.2425 0.69525
v 0.664 -0.0275 0.69525
v -0.664 -0.0275 0.69525
v 0.664 -1.6975 0.69525
v 0.664 -0.9275 0.69525
v -0.664 -1.6975 0.69525
v -0.664 -0.9275 0.69525
v 0.814 1.30762 -0.0787556
v 0.814 1.7975 -0.14525
v 0.814 1.4269 -0.245165
v 0.664 1.30762 -0.0787556
v 0.664 1.4269 -0.245165
v -0.664 1.7975 -0.14525
v -0.664 1.30762 -0.0787556
v -0.664 1.4269 -0.245165
v -0.814 1.30762 -0.0787556
v -0.814 1.7975 -0.14525
v -0.814 1.4269 -0.245165
v 0.814 0.207352 -0.319263
v 0.814 0.0625 -0.79525
v 0.664 0.207352 -0.319263
v 0.664 0.0625 -0.79525
v -0.664 0.207352 -0.319263
v -0.664 0.0625 -0.79525
v -0.814 0.207352 -0.319263
v -0.814 0.0625 -0.79525
v 0.664 -1.6975 -0.77525
v 0.814 -1.6975 -0.77525
v 0.814 -0.8375 -0.787466
v 0.664 -0.8375 -0.787466
v -0.664 -1.6975 -0.77525
v -0.664 -0.8375 -0.787466
v -0.814 -1.6975 -0.77525
v -0.814 -0.8375 -0.787466
v 0.664 1.4775 0.69525
v 0.814 1.4775 0.69525
v -0.664 1.4775 0.69525
v -0.814 1.4775 0.69525
v 0.664 1.4775 0.694935
v -0.664 1.4775 0.694935
v 0.664 1.7975 -0.14525
v 0.664 1.7775 -0.095135
v -0.664 1.7775 -0.095135
vt 0.205516 0.03
vt 0.205516 0.0872818
vt 0.205516 0.154235
vt 0.205516 0.17432
vt 0.205516 0.243957
vt 0.205516 0.250094
vt 0.205516 0.266195
vt 0.209 0.3095
vt 0.209 0.391982
vt 0.209 0.478301
vt 0.209 0.519494
vt 0.209 0.625021
vt 0.209 0.636461
vt 0.209 0.672005
vt 0.21172 0.691199
vt 0.21172 0.764858
vt 0.22517 0.3095
vt 0.22517 0.391982
vt 0.22517 0.478301
vt 0.22517 0.519494
vt 0.22517 0.625021
vt 0.22517 0.636461
vt 0.22517 0.672005
vt 0.227731 0.691199
vt 0.227731 0.764858
vt 0.234554 0.518028
vt 0.234554 0.629119
vt 0.234554 0.640143
vt 0.234554 0.67194
vt 0.234554 0.31106
vt 0.234554 0.394091
vt 0.234554 0.476704
vt 0.234595 0.476721
vt 0.234595 0.517714
vt 0.261953 0.253557
vt 0.266801 0.29
vt 0.274086 0.262431
vt 0.279489 0.171706
vt 0.312738 0.03
vt 0.313628 0.0939771
vt 0.314196 0.16093
vt 0.357525 0.518028
vt 0.357525 0.629119
vt 0.357525 0.640143
vt 0.357525 0.67194
vt 0.357525 0.31106
vt 0.357525 0.394091
vt 0.357525 0.476704
vt 0.35799 0.476721
vt 0.35799 0.517714
vt 0.36833 0.3095
vt 0.36833 0.391982
vt 0.36833 0.478301
vt 0.36833 0.519494
vt 0.36833 0.625021
vt 0.36833 0.636461
vt 0.36833 0.672005
vt 0.369483 0.691199
vt 0.369483 0.764858
vt 0.3845 0.3095
vt 0.3845 0.391982
vt 0.3845 0.478301
vt 0.3845 0.519494
vt 0.3845 0.625021
vt 0.3845 0.636461
vt 0.3845 0.672005
vt 0.385494 0.691199
vt 0.385494 0.764858
vn 0 0 1
vn 0 0 1
vn 0 0 1
vn 0 0 1
vn 0 0 1
vn 0 0 1
vn 0 0 1
vn 0 0 1
vn 0 0 1
vn 0 0 1
vn 0 0 1
vn 0 0 1
vn 0 -1 -0
vn 0 -1 -0
vn 0 -1 -0
vn 0 -1 -0
vn 0 0 1
vn 0 0 1
vn 0 0 1
vn 0 0 1
vn 0 0 1
vn 0 0 1
vn 0 0 1
vn 0 0 1
vn 0 0 1
vn 0 0 1
vn 0 0 1
vn 0 0 1
vn 1 0 -0
vn 1 0 -0
vn 1 0 -0
vn 1 0 -0
vn -1 0 0
vn -1 0 0
vn -1 0 0
vn -1 0 0
vn 1 0 0
vn 1 0 0
vn 1 0 0
vn 1 0 0
vn -1 0 -0
vn -1 0 -0
vn -1 0 -0
vn -1 0 -0
vn 1 0 -0
vn 1 0 -0
vn 1 0 -0
vn 1 0 -0
vn -1 0 -0
vn -1 0 -0
vn -1 0 -0
vn -1 0 -0
vn 1 0 -0
vn 1 0 -0
vn 1 0 -0
vn 1 0 -0
vn -1 0 0
vn -1 0 0
vn -1 0 0
vn -1 0 0
vn 1 -0 -0
vn 1 -0 -0
vn 1 -0 -0
vn 1 -0 -0
vn -1 0 0
vn -1 0 0
vn -1 0 0
vn -1 0 0
vn 1 0 -0
vn 1 0 -0
vn 1 0 -0
vn 1 0 -0
vn -1 0 -0
vn -1 0 -0
vn -1 0 -0
vn -1 0 -0
vn 0 0 1
vn 0 0 1
vn 0 0 1
vn 0 0 1
vn 0 0 1
vn 0 0 1
vn 0 0 1
vn 0 0 1
vn 0 0 1
vn 0 0 1
vn 0 0 1
vn 0 0 1
vn 0 -1 -0
vn 0 -1 -0
vn 0 -1 -0
vn 0 -1 -0
vn 0 0 1
vn 0 0 1
vn 0 0 1
vn 0 0 1
vn 0 0 1
vn 0 0 1
vn 0 0 1
vn 0 0 1
vn 0 0 1
vn 0 0 1
vn 0 0 1
vn 0 0 1
vn -1 0 0
vn -1 0 0
vn -1 0 0
vn -1 0 0
vn 1 0 -0
vn 1 0 -0
vn 1 0 -0
vn 1 0 -0
vn -1 0 -0
vn -1 0 -0
vn -1 0 -0
vn -1 0 -0
vn 1 0 0
vn 1 0 0
vn 1 0 0
vn 1 0 0
vn -1 0 -0
vn -1 0 -0
vn -1 0 -0
vn -1 0 -0
vn 1 0 -0
vn 1 0 -0
vn 1 0 -0
vn 1 0 -0
vn -1 0 0
vn -1 0 0
vn -1 0 0
vn -1 0 0
vn 1 0 -0
vn 1 0 -0
vn 1 0 -0
vn 1 0 -0
vn -1 0 0
vn -1 0 0
vn -1 0 0
vn -1 0 0
vn 1 -0 -0
vn 1 -0 -0
vn 1 -0 -0
vn 1 -0 -0
vn -1 0 -0
vn -1 0 -0
vn -1 0 -0
vn -1 0 -0
vn 1 0 -0
vn 1 0 -0
vn 1 0 -0
vn 1 0 -0
vn 0 0 1
vn 0 0 1
vn 0 0 1
vn 0 0 1
vn -0 -0 1
vn -0 -0 1
vn -0 -0 1
vn -0 -0 1
vn 0 0 1
vn 0 0 1
vn 0 0 1
vn 0 0 1
vn -0 -0 1
vn -0 -0 1
vn -0 -0 1
vn -0 -0 1
vn -0 -0 1
vn -0 -0 1
vn -0 -0 1
vn -0 -0 1
vn 0 0 1
vn 0 0 1
vn 0 0 1
vn 0 0 1
vn 0 -0.00935447 -0.999956
vn 0 -0.00935447 -0.999956
vn 0 -0.00935447 -0.999956
vn 0 -0.00935447 -0.999956
vn 0 -0.0116271 -0.999932
vn 0 -0.0116271 -0.999932
vn 0 -0.0116271 -0.999932
vn 0 -0.0116271 -0.999932
vn -0 0.948754 -0.316016
vn -0 0.948754 -0.316016
vn -0 0.948754 -0.316016
vn -0 0.948754 -0.316016
vn -0 0.212919 -0.97707
vn -0 0.212919 -0.97707
vn -0 0.212919 -0.97707
vn -0 0.212919 -0.97707
vn 0 -0.811642 -0.584155
vn 0 -0.811642 -0.584155
vn 0 -0.811642 -0.584155
vn 0 -0.811642 -0.584155
vn 0 0.251065 -0.96797
vn 0 0.251065 -0.96797
vn 0 0.251065 -0.96797
vn 0 0.251065 -0.96797
vn 0 0.956681 -0.291137
vn 0 0.956681 -0.291137
vn 0 0.956681 -0.291137
vn 0 0.956681 -0.291137
vn 0 -0.00864897 -0.999963
vn 0 -0.00864897 -0.999963
vn 0 -0.00864897 -0.999963
vn 0 -0.00864897 -0.999963
vn 0 -0.0142028 -0.999899
vn 0 -0.0142028 -0.999899
vn 0 -0.0142028 -0.999899
vn 0 -0.0142028 -0.999899
vn 0 0.260311 -0.965525
vn 0 0.260311 -0.965525
vn 0 0.260311 -0.965525
vn 0 0.260311 -0.965525
vn 0 -0.812764 -0.582593
vn 0 -0.812764 -0.582593
vn 0 -0.812764 -0.582593
vn 0 -0.812764 -0.582593
vn 0 0.213548 -0.976933
vn 0 0.213548 -0.976933
vn 0 0.213548 -0.976933
vn 0 0.213548 -0.976933
vn -0 0.956681 -0.291137
vn -0 0.956681 -0.291137
vn -0 0.956681 -0.291137
vn -0 0.956681 -0.291137
vn 0 -0.00864897 -0.999963
vn 0 -0.00864897 -0.999963
vn 0 -0.00864897 -0.999963
vn 0 -0.00864897 -0.999963
vn 0 -0.0142028 -0.999899
vn 0 -0.0142028 -0.999899
vn 0 -0.0142028 -0.999899
vn 0 -0.0142028 -0.999899
vn -0 0.260311 -0.965525
vn -0 0.260311 -0.965525
vn -0 0.260311 -0.965525
vn -0 0.260311 -0.965525
vn 0 -0.812764 -0.582593
vn 0 -0.812764 -0.582593
vn 0 -0.812764 -0.582593
vn 0 -0.812764 -0.582593
vn -0 0.213548 -0.976933
vn -0 0.213548 -0.976933
vn -0 0.213548 -0.976933
vn -0 0.213548 -0.976933
vn 0 0.934558 0.35581
vn 0 0.934558 0.35581
vn 0 0.934558 0.35581
vn 0 0.934558 0.35581
vn 0 0.934558 0.35581
vn 0 0.934558 0.35581
vn 0 0.934558 0.35581
vn 0 0.934558 0.35581
vn 0 0.934873 0.354983
vn 0 0.934873 0.354983
vn 0 0.934873 0.354983
vn 0 0.934873 0.354983
g Default
usemtl Default
s off
f 30/4/1 1/4/2 2/3/3 32/3/4
f 32/3/5 2/3/6 3/2/7 36/2/8
f 36/2/9 3/2/10 4/1/11 35/1/12
f 4/1/13 62/39/14 60/39/15 35/1/16
f 66/7/17 67/7/18 5/6/19 28/6/20
f 28/6/21 5/6/22 6/5/23 27/5/24
f 27/5/25 6/5/26 1/4/27 30/4/28
f 52/38/29 30/4/30 32/3/31 53/41/32
f 2/3/33 1/4/34 54/38/35 55/41/36
f 36/2/37 61/40/38 53/41/39 32/3/40
f 55/41/41 63/40/42 3/2/43 2/3/44
f 36/2/45 35/1/46 60/39/47 61/40/48
f 62/39/49 4/1/50 3/2/51 63/40/52
f 42/36/53 66/7/54 28/6/55 44/37/56
f 5/6/57 67/7/58 46/36/59 47/37/60
f 44/37/61 28/6/62 27/5/63 43/35/64
f 6/5/65 5/6/66 47/37/67 45/35/68
f 43/35/69 27/5/70 30/4/71 52/38/72
f 1/4/73 6/5/74 45/35/75 54/38/76
f 8/3/77 7/4/78 29/4/79 31/3/80
f 9/2/81 8/3/82 31/3/83 34/2/84
f 10/1/85 9/2/86 34/2/87 33/1/88
f 56/39/89 57/39/90 10/1/91 33/1/92
f 11/6/93 65/7/94 64/7/95 26/6/96
f 12/5/97 11/6/98 26/6/99 25/5/100
f 7/4/101 12/5/102 25/5/103 29/4/104
f 31/3/105 29/4/106 50/38/107 51/41/108
f 48/38/109 7/4/110 8/3/111 49/41/112
f 51/41/113 59/40/114 34/2/115 31/3/116
f 9/2/117 58/40/118 49/41/119 8/3/120
f 56/39/121 33/1/122 34/2/123 59/40/124
f 9/2/125 10/1/126 57/39/127 58/40/128
f 26/6/129 64/7/130 70/36/131 41/37/132
f 38/36/133 65/7/134 11/6/135 39/37/136
f 25/5/137 26/6/138 41/37/139 40/35/140
f 39/37/141 11/6/142 12/5/143 37/35/144
f 29/4/145 25/5/146 40/35/147 50/38/148
f 37/35/149 12/5/150 7/4/151 48/38/152
f 31/3/153 29/4/154 30/4/155 32/3/156
f 32/3/157 36/2/158 34/2/159 31/3/160
f 33/1/161 34/2/162 36/2/163 35/1/164
f 66/7/165 28/6/166 26/6/167 64/7/168
f 28/6/169 27/5/170 25/5/171 26/6/172
f 29/4/173 25/5/174 27/5/175 30/4/176
f 18/47/177 17/31/178 15/32/179 16/48/180
f 17/31/181 18/47/182 14/46/183 13/30/184
f 19/50/185 20/34/186 16/33/187 15/49/188
f 22/43/189 21/27/190 20/26/191 19/42/192
f 24/44/193 23/28/194 21/27/195 22/43/196
f 23/28/197 24/44/198 72/45/199 71/29/200
f 55/10/201 54/11/202 52/20/203 53/19/204
f 63/9/205 55/10/206 53/19/207 61/18/208
f 62/8/209 63/9/210 61/18/211 60/17/212
f 47/13/213 46/14/214 42/23/215 44/22/216
f 45/12/217 47/13/218 44/22/219 43/21/220
f 54/11/221 45/12/222 43/21/223 52/20/224
f 50/54/225 48/63/226 49/62/227 51/53/228
f 51/53/229 49/62/230 58/61/231 59/52/232
f 59/52/233 58/61/234 57/60/235 56/51/236
f 70/57/237 38/66/238 39/65/239 41/56/240
f 41/56/241 39/65/242 37/64/243 40/55/244
f 40/55/245 37/64/246 48/63/247 50/54/248
f 42/25/249 46/16/250 67/15/251 66/24/252
f 65/67/253 38/68/254 70/59/255 64/58/256
f 69/24/257 68/58/258 71/59/259 72/25/260
