####
#
#	OBJ File Generated by LightWave3D
#	LightWave3D OBJ Export v2.3
#
####
o arcade2.obj
mtllib arcade2.mtl
g default
v -0.75032 0.134741 -0.843603
v 0.75032 1.65486 -0.201902
v 0.75032 2.00654 -0.105777
v -0.75032 2.00654 -0.105777
v -0.75032 1.65486 -0.201902
v 0.75032 0.304232 -0.305135
v -0.75032 0.304232 -0.305135
v 0.75032 0.134741 -0.843603
v -0.75032 0.134741 -0.843603
v 0.75032 -0.77898 -0.837546
v 0.75032 -1.69733 -0.826245
v -0.75032 -0.77898 -0.837546
v -0.75032 -1.69733 -0.826245
v 0.75032 1.53292 -0.0226246
v 0.75032 1.69309 0.789654
v 0.75032 1.46198 0.789654
v 0.75032 1.37388 0.789654
v -0.75032 1.53292 -0.0226246
v -0.75032 1.46198 0.789654
v -0.75032 1.37388 0.789654
v -0.75032 1.69309 0.789654
v 0.75032 0.374298 0.789654
v -0.75032 0.374298 0.789654
v 0.75032 0.0859789 0.789654
v -0.75032 0.0859789 0.789654
v 0.75032 -1.69733 0.789654
v 0.75032 -0.875086 0.789654
v -0.75032 -0.875086 0.789654
v -0.75032 -1.69733 0.789654
vt 0.40621 0.0631674
vt 0.4195 0.455648
vt 0.4195 0.517607
vt 0.4195 0.641175
vt 0.4195 0.652487
vt 0.419519 0.274181
vt 0.419519 0.365335
vt 0.419519 0.45603
vt 0.419519 0.652869
vt 0.419519 0.687776
vt 0.419519 0.518694
vt 0.419519 0.636993
vt 0.42025 0.697503
vt 0.42025 0.769193
vt 0.59379 0.0631674
vt 0.6085 0.641175
vt 0.6085 0.652487
vt 0.609125 0.697503
vt 0.609125 0.769193
vt 0.609163 0.274181
vt 0.609163 0.365335
vt 0.609163 0.45603
vt 0.609163 0.518694
vt 0.609163 0.636993
vt 0.609163 0.652869
vt 0.609163 0.687776
vt 0.609268 0.455648
vt 0.609268 0.517607
vt 0.627794 0.319743
vt 0.627794 0.401357
vt 0.627794 0.496751
vt 0.627794 0.525369
vt 0.627794 0.624586
vt 0.627794 0.63333
vt 0.627794 0.65627
vt 0.628747 0.321563
vt 0.628747 0.402975
vt 0.628747 0.498132
vt 0.628747 0.526679
vt 0.628747 0.526679
vt 0.628747 0.62565
vt 0.628747 0.634372
vt 0.628747 0.657255
vt 0.700891 0.641397
vt 0.708276 0.68829
vt 0.716814 0.653469
vt 0.725983 0.519742
vt 0.772266 0.321563
vt 0.77327 0.412491
vt 0.773808 0.50296
vn 0 0 1
vn 0 0 1
vn 0 0 1
vn 0 0 1
vn -0 -0 1
vn -0 -0 1
vn -0 -0 1
vn -0 -0 1
vn 0 0 1
vn 0 0 1
vn 0 0 1
vn 0 0 1
vn -0 -0 1
vn -0 -0 1
vn -0 -0 1
vn -0 -0 1
vn -0 -0 1
vn -0 -0 1
vn -0 -0 1
vn -0 -0 1
vn 0 0 1
vn 0 0 1
vn 0 0 1
vn 0 0 1
vn 0 1 -0
vn 0 1 -0
vn 0 1 -0
vn 0 1 -0
vn -3.93895e-08 -0.00662895 -0.999978
vn -3.93895e-08 -0.00662895 -0.999978
vn -3.93895e-08 -0.00662895 -0.999978
vn -3.93895e-08 -0.00662895 -0.999978
vn 0 -0.0123038 -0.999924
vn 0 -0.0123038 -0.999924
vn 0 -0.0123038 -0.999924
vn 0 -0.0123038 -0.999924
vn 3.87094e-08 0.224081 -0.974571
vn 3.87094e-08 0.224081 -0.974571
vn 3.87094e-08 0.224081 -0.974571
vn 3.87094e-08 0.224081 -0.974571
vn 0 0.263656 -0.964617
vn 0 0.263656 -0.964617
vn 0 0.263656 -0.964617
vn 0 0.263656 -0.964617
vn 0 0.943842 0.330396
vn 0 0.943842 0.330396
vn 0 0.943842 0.330396
vn 0 0.943842 0.330396
vn 1.19255e-08 0.953863 -0.300243
vn 1.19255e-08 0.953863 -0.300243
vn 1.19255e-08 0.953863 -0.300243
vn 1.19255e-08 0.953863 -0.300243
vn 0 -0.826874 -0.562387
vn 0 -0.826874 -0.562387
vn 0 -0.826874 -0.562387
vn 0 -0.826874 -0.562387
vn -1 0 0
vn -1 0 0
vn -1 0 0
vn -1 0 0
vn -1 0 -0
vn -1 0 -0
vn -1 0 -0
vn -1 0 -0
vn -1 -0 -0
vn -1 -0 -0
vn -1 -0 -0
vn -1 -0 -0
vn -1 -0 0
vn -1 -0 0
vn -1 -0 0
vn -1 -0 0
vn -1 0 -0
vn -1 0 -0
vn -1 0 -0
vn -1 0 -0
vn -1 0 -0
vn -1 0 -0
vn -1 0 -0
vn -1 0 -0
vn 1 0 -0
vn 1 0 -0
vn 1 0 -0
vn 1 0 -0
vn 1 0 -0
vn 1 0 -0
vn 1 0 -0
vn 1 0 -0
vn 1 0 -0
vn 1 0 -0
vn 1 0 -0
vn 1 0 -0
vn 1 0 -0
vn 1 0 -0
vn 1 0 -0
vn 1 0 -0
vn 1 0 -0
vn 1 0 -0
vn 1 0 -0
vn 1 0 -0
vn 1 -0 -0
vn 1 -0 -0
vn 1 -0 -0
vn 1 -0 -0
g Default
usemtl Default
s off
f 24/31/1 22/32/2 23/32/3 25/31/4
f 25/31/5 28/30/6 27/30/7 24/31/8
f 26/29/9 27/30/10 28/30/11 29/29/12
f 21/35/13 19/34/14 16/34/15 15/35/16
f 19/34/17 20/33/18 17/33/19 16/34/20
f 22/32/21 17/33/22 20/33/23 23/32/24
g tx
usemtl tx
s off
f 26/15/25 11/15/26 13/1/27 29/1/28
g Default
usemtl Default
s off
f 10/7/29 12/21/30 9/22/31 8/8/32
f 12/21/33 10/7/34 11/6/35 13/20/36
f 18/24/37 14/12/38 6/11/39 7/23/40
f 2/9/41 5/25/42 4/26/43 3/10/44
f 21/13/45 15/18/46 3/19/47 4/14/48
f 8/2/49 9/27/50 7/28/51 6/3/52
f 5/5/53 2/17/54 14/16/55 18/4/56
f 19/42/57 21/43/58 4/45/59 5/46/60
f 18/44/61 20/41/62 19/42/63 5/46/64
f 7/47/65 23/39/66 20/41/67 18/44/68
f 1/50/69 25/38/70 23/39/71 7/47/72
f 12/49/73 28/37/74 25/38/75 1/50/76
f 29/36/77 28/37/78 12/49/79 13/48/80
f 3/45/81 15/43/82 16/42/83 2/46/84
f 16/42/85 17/41/86 14/44/87 2/46/88
f 17/41/89 22/40/90 6/47/91 14/44/92
f 22/40/93 24/38/94 8/50/95 6/47/96
f 24/38/97 27/37/98 10/49/99 8/50/100
f 10/49/101 27/37/102 26/36/103 11/48/104
